# xmcd CD database file
# Copyright (C) 1993-1998 Ti Kan
# 
# Track frame offsets:
#     150
#     12752
#     25957
#     37445
#     49270
#     68527
#     82300
#     93657
#     108032
#     125922
# 
# Disc length: 1837 seconds
# 
# Revision: 1
# Processed by: cddbd v1.4b41PL1 Copyright (c) Steve Scherf et al.
# Submitted via: DiscPlay 4.0.4
# 
DISCID=8a072b0a
DTITLE=Johnny Cash and Waylon Jennings - Heroes
DYEAR=1900
DGENRE=
TTITLE0=Folks out on the Road
TTITLE1=I'm never gonna roam again
TTITLE2=American by Birth
TTITLE3=Field of Diamonds
TTITLE4=Heroes
TTITLE5=Even Cowgirls get the Blues
TTITLE6=Love is the Way
TTITLE7=The Ballad of Forty Dollars
TTITLE8=I'll Always Love You (In my own Crazy way)
TTITLE9=One too many Mornings
EXTD=
EXTT0=
EXTT1=
EXTT2=
EXTT3=
EXTT4=
EXTT5=
EXTT6=
EXTT7=
EXTT8=
EXTT9=
PLAYORDER=
